<svg data-testid="invertible-mask-svg" class="invertible-mask svelte-57t33y" xmlns="http://www.w3.org/2000/svg" viewBox="0 0 28 28" width="28" height="28" role="presentation" fill="#bed2e0"><mask data-testid="invertible-mask" id="uid-11"><rect width="100%" height="100%" fill="black"></rect><svg xmlns="http://www.w3.org/2000/svg" viewBox="0 0 64 64" width="20" height="20" x="4" y="4" fill="white"><path d="M19.489 16.272h41.284A3.204 3.204 0 0 0 64 13.046a3.203 3.203 0 0 0-3.227-3.222H19.49a3.2 3.2 0 0 0-3.226 3.222 3.2 3.2 0 0 0 3.226 3.226zm0 18.954h41.284A3.207 3.207 0 0 0 64 32a3.206 3.206 0 0 0-3.227-3.226H19.49A3.204 3.204 0 0 0 16.263 32a3.204 3.204 0 0 0 3.226 3.226zm0 18.95h41.284A3.203 3.203 0 0 0 64 50.954a3.204 3.204 0 0 0-3.227-3.226H19.49a3.2 3.2 0 0 0-3.226 3.226 3.2 3.2 0 0 0 3.226 3.222zM4.636 17.682c2.54 0 4.632-2.091 4.632-4.636 0-2.54-2.092-4.631-4.632-4.631C2.092 8.415 0 10.506 0 13.046c0 2.545 2.092 4.636 4.636 4.636zm0 18.954c2.54 0 4.632-2.091 4.632-4.636s-2.092-4.636-4.632-4.636C2.092 27.364 0 29.455 0 32s2.092 4.636 4.636 4.636zm0 18.95c2.54 0 4.632-2.092 4.632-4.632 0-2.545-2.092-4.636-4.632-4.636C2.092 46.318 0 48.409 0 50.954c0 2.54 2.092 4.631 4.636 4.631z"></path></svg></mask><rect data-testid="invertible-mask-rect" width="100%" height="100%" mask="url(#uid-11)"></rect></svg>