<svg _ngcontent-yhe-c3="" viewBox="0 0 200 200" fill="#bed3e0" xmlns="http://www.w3.org/2000/svg">
<g _ngcontent-yhe-c3="" class="wheel" style="animation-name: none; animation-duration: 0s;">
<path _ngcontent-yhe-c3="" d="M124.275 158.787C133.906 158.787 141.71 150.967 141.71 141.325C141.71 131.682 133.906 123.863 124.275 123.863C114.645 123.863 106.84 131.682 106.84 141.325C106.84 150.967 114.645 158.787 124.275 158.787Z" stroke="#fff" stroke-width="2"></path><rect _ngcontent-yhe-c3="" width="4.49074" height="8.97412" transform="matrix(0.499385 -0.86638 0.86567 0.500615 108.577 135.258)" fill="#fff"></rect><rect _ngcontent-yhe-c3="" width="4.49074" height="8.97412" transform="matrix(-0.499385 -0.86638 0.86567 -0.500615 110.82 152.556)" fill="#fff"></rect><rect _ngcontent-yhe-c3="" width="4.49074" height="8.97412" transform="matrix(-0.499385 0.86638 -0.86567 -0.500615 139.974 148.064)" fill="#fff"></rect><rect _ngcontent-yhe-c3="" width="4.49074" height="8.97412" transform="matrix(0.499385 0.86638 -0.86567 0.500615 137.731 131.217)" fill="#fff"></rect><rect _ngcontent-yhe-c3="" x="122.033" y="149.187" width="4.48522" height="8.98516" fill="#fff"></rect><rect _ngcontent-yhe-c3="" x="122.033" y="124.478" width="4.48522" height="8.98516" fill="#fff"></rect></g></svg>